<svg width="16" height="14" viewBox="0 0 16 14" fill="none" xmlns="http://www.w3.org/2000/svg">
<path d="M7.49837 4.37128C5.65275 4.37128 4.16325 5.60806 4.16325 7.14052C4.16325 8.67299 5.65275 9.90976 7.49837 9.90976C9.344 9.90976 10.8335 8.67299 10.8335 7.14052C10.8335 5.60806 9.344 4.37128 7.49837 4.37128ZM7.49837 8.94033C6.30482 8.94033 5.33078 8.13156 5.33078 7.14052C5.33078 6.14948 6.30482 5.34072 7.49837 5.34072C8.69193 5.34072 9.66596 6.14948 9.66596 7.14052C9.66596 8.13156 8.69193 8.94033 7.49837 8.94033ZM10.9701 3.61247C10.5392 3.61247 10.1912 3.90141 10.1912 4.25921C10.1912 4.61702 10.5392 4.90596 10.9701 4.90596C11.401 4.90596 11.749 4.61837 11.749 4.25921C11.7491 4.17425 11.7291 4.09011 11.69 4.01159C11.6509 3.93308 11.5935 3.86174 11.5211 3.80166C11.4488 3.74159 11.3629 3.69395 11.2683 3.66149C11.1738 3.62902 11.0724 3.61237 10.9701 3.61247ZM13.9995 7.14052C13.9995 6.39522 14.0076 5.65666 13.9572 4.91271C13.9068 4.04858 13.6694 3.28168 12.9084 2.64979C12.1458 2.01655 11.2238 1.82077 10.1831 1.77891C9.28546 1.73706 8.39598 1.74381 7.5 1.74381C6.60239 1.74381 5.71292 1.73706 4.81694 1.77891C3.77623 1.82077 2.85261 2.0179 2.0916 2.64979C1.32896 3.28303 1.09317 4.04858 1.04276 4.91271C0.992353 5.65801 1.00048 6.39657 1.00048 7.14052C1.00048 7.88448 0.992353 8.62438 1.04276 9.36834C1.09317 10.2325 1.33058 10.9994 2.0916 11.6313C2.85424 12.2645 3.77623 12.4603 4.81694 12.5021C5.71454 12.544 6.60402 12.5372 7.5 12.5372C8.39761 12.5372 9.28708 12.544 10.1831 12.5021C11.2238 12.4603 12.1474 12.2631 12.9084 11.6313C13.671 10.998 13.9068 10.2325 13.9572 9.36834C14.0093 8.62438 13.9995 7.88583 13.9995 7.14052ZM12.5686 10.3243C12.4498 10.57 12.3067 10.7536 12.0775 10.9427C11.8482 11.133 11.6287 11.2519 11.3327 11.3504C10.4774 11.6326 8.44639 11.5691 7.49837 11.5691C6.55036 11.5691 4.51774 11.6326 3.66241 11.3518C3.36646 11.2532 3.14531 11.1344 2.91765 10.944C2.68837 10.7536 2.54528 10.5714 2.42657 10.3256C2.08834 9.61407 2.16477 7.92768 2.16477 7.14052C2.16477 6.35336 2.08834 4.66562 2.42657 3.95542C2.54528 3.70969 2.68837 3.52606 2.91765 3.33703C3.14693 3.14801 3.36646 3.02784 3.66241 2.92928C4.51774 2.64844 6.55036 2.7119 7.49837 2.7119C8.44639 2.7119 10.479 2.64844 11.3343 2.92928C11.6303 3.02784 11.8514 3.14666 12.0791 3.33703C12.3084 3.52741 12.4515 3.70969 12.5702 3.95542C12.9084 4.66562 12.832 6.35336 12.832 7.14052C12.832 7.92768 12.9084 9.61407 12.5686 10.3243Z" fill="black"/>
</svg>
