<svg width="24" height="25" viewBox="0 0 24 25" fill="none" xmlns="http://www.w3.org/2000/svg">
<path d="M10.9997 5.5918C7.68575 5.5918 5 8.27815 5 11.5915C5 14.1331 6.5813 16.306 8.81362 17.1804C8.76077 16.706 8.71393 15.9757 8.83404 15.458C8.94334 14.9895 9.53791 12.4755 9.53791 12.4755C9.53791 12.4755 9.35834 12.1158 9.35834 11.5843C9.35834 10.7507 9.8418 10.1279 10.4442 10.1279C10.9565 10.1279 11.2033 10.5123 11.2033 10.9729C11.2033 11.4882 10.8754 12.2575 10.7066 12.971C10.5655 13.568 11.0063 14.055 11.5949 14.055C12.6609 14.055 13.4813 12.9308 13.4813 11.3074C13.4813 9.87086 12.4489 8.86671 10.9751 8.86671C9.26765 8.86671 8.2653 10.1471 8.2653 11.4702C8.2653 11.9855 8.46409 12.5386 8.71213 12.8395C8.7332 12.8621 8.74809 12.8898 8.75535 12.9199C8.7626 12.95 8.76199 12.9815 8.75356 13.0112C8.70792 13.2004 8.60642 13.6082 8.58721 13.6917C8.56078 13.8016 8.50012 13.825 8.38602 13.7722C7.6371 13.4232 7.16866 12.3278 7.16866 11.4474C7.16866 9.55496 8.54336 7.81691 11.133 7.81691C13.2146 7.81691 14.8319 9.29972 14.8319 11.2822C14.8319 13.3506 13.5281 15.0135 11.7186 15.0135C11.1102 15.0135 10.5391 14.6982 10.3433 14.3253L9.96912 15.751C9.83399 16.2723 9.46824 16.9258 9.22381 17.3245C9.79923 17.5022 10.3981 17.5923 11.0003 17.5918C14.3136 17.5918 17 14.9054 17 11.5921C17 8.27875 14.313 5.5918 10.9997 5.5918Z" fill="black"/>
</svg>
