<svg width="16" height="15" viewBox="0 0 16 15" fill="none" xmlns="http://www.w3.org/2000/svg">
<path d="M14.5 4.21221C14.0219 4.38347 13.5015 4.50672 12.9656 4.55472C13.522 4.28024 13.9387 3.84661 14.1375 3.33518C13.6153 3.59309 13.0433 3.77394 12.4468 3.8697C12.1975 3.64841 11.896 3.47211 11.5611 3.3518C11.2261 3.23149 10.8649 3.16975 10.5 3.17042C9.02341 3.17042 7.83591 4.16421 7.83591 5.38375C7.83591 5.55501 7.86091 5.72626 7.90154 5.89103C5.6906 5.79502 3.71873 4.91799 2.40779 3.5752C2.16892 3.91397 2.04375 4.29969 2.04529 4.69225C2.04529 5.4603 2.5156 6.13753 3.23279 6.53583C2.81014 6.52201 2.39739 6.42555 2.0281 6.25429V6.28154C2.0281 7.35707 2.94373 8.24837 4.16404 8.45336C3.93491 8.50278 3.69921 8.52806 3.46248 8.52861C3.28904 8.52861 3.12498 8.51434 2.95935 8.49488C3.29685 9.37191 4.27966 10.0089 5.44998 10.0297C4.53435 10.6252 3.38748 10.9755 2.14216 10.9755C1.91873 10.9755 1.71248 10.969 1.49841 10.9482C2.67966 11.5775 4.08123 11.9407 5.5906 11.9407C10.4906 11.9407 13.1719 8.57012 13.1719 5.64452C13.1719 5.54852 13.1719 5.45251 13.164 5.35651C13.6828 5.04124 14.1375 4.65073 14.5 4.21221Z" fill="black"/>
</svg>
