<svg width="24" height="21" viewBox="0 0 24 21" fill="none" xmlns="http://www.w3.org/2000/svg">
<path fill-rule="evenodd" clip-rule="evenodd" d="M10.6413 12.0875V8.77L14.4824 10.4347L10.6413 12.0875ZM19.0765 8.19563C19.0765 8.19563 18.9379 7.3816 18.5113 7.02328C17.971 6.5534 17.3646 6.55104 17.0866 6.52329C15.0974 6.40405 12.1122 6.40405 12.1122 6.40405H12.1065C12.1065 6.40405 9.122 6.40405 7.13209 6.52329C6.85412 6.55104 6.2484 6.55281 5.70738 7.02328C5.28082 7.3816 5.14219 8.19563 5.14219 8.19563C5.14219 8.19563 5 9.15075 5 10.1065V11.0019C5 11.9571 5.14219 12.9128 5.14219 12.9128C5.14219 12.9128 5.28082 13.7262 5.70738 14.0845C6.24769 14.555 6.95862 14.5396 7.27499 14.5892C8.41248 14.6795 12.1093 14.7073 12.1093 14.7073C12.1093 14.7073 15.0974 14.7038 17.0866 14.5845C17.3646 14.5568 17.971 14.555 18.5113 14.0845C18.9379 13.7262 19.0765 12.9128 19.0765 12.9128C19.0765 12.9128 19.2187 11.9571 19.2187 11.0019V10.1065C19.2187 9.15075 19.0765 8.19563 19.0765 8.19563Z" fill="black"/>
</svg>
